<svg xmlns="http://www.w3.org/2000/svg" viewBox="0 0 191.35 137.84"><path d="M160.38 68.25H0L14.08.05h160.37Z" fill="#82b9c6"/><path d="M40.83 60.18a17.47 17.47 0 0 1-8.12-1.84 18.67 18.67 0 0 1-6-4.93 21.65 21.65 0 0 1-3.73-7 26.65 26.65 0 0 1-1.28-8.16 25.32 25.32 0 0 1 1.06-7.17 31.93 31.93 0 0 1 3-7 32.65 32.65 0 0 1 4.67-6.27 33.07 33.07 0 0 1 6.16-5.07A31.46 31.46 0 0 1 44 9.25a27.75 27.75 0 0 1 8.41-1.27q7 0 11.38 3.12a14.8 14.8 0 0 1 5.83 8.15L59.1 25.64a8.72 8.72 0 0 0-1.26-3.39 7.64 7.64 0 0 0-2.21-2.18 8.46 8.46 0 0 0-2.83-1.16 13.91 13.91 0 0 0-3-.32 12.86 12.86 0 0 0-6.74 1.78 17.15 17.15 0 0 0-5 4.56 21.15 21.15 0 0 0-3.15 6.12 20.93 20.93 0 0 0-1.09 6.45 17 17 0 0 0 .62 4.64 12.38 12.38 0 0 0 1.81 3.84 8.71 8.71 0 0 0 3 2.65 8.54 8.54 0 0 0 4.13 1 13.6 13.6 0 0 0 3.15-.4 14.69 14.69 0 0 0 3.26-1.24 14.87 14.87 0 0 0 3.12-2.17 12.79 12.79 0 0 0 2.57-3.3L64 48.25a20.79 20.79 0 0 1-4.42 5.07 27.82 27.82 0 0 1-5.83 3.77 32.78 32.78 0 0 1-6.53 2.32 28.53 28.53 0 0 1-6.39.77ZM90.85 8.3h10.8l6.67 51.45H96.14l-1.08-11.5H80.41l-5.87 11.5H62.29Zm4 31.74-1.46-18.19L84 40.04ZM124.12 8.3H136l-8.77 41h23.27l-2.16 10.45h-35.16Z" fill="#fff"/><path d="M177.11 137.84H15l14.23-68.93h162.12Z" fill="#fdb714"/><path d="M60.2 77.37h12l-11.07 52h-12ZM91.2 87.92H76.32l2.2-10.55h41.7L118 87.92h-14.8l-8.87 41.46h-12ZM126.59 77.37h21.18a11.67 11.67 0 0 1 5.42 1.25 12.29 12.29 0 0 1 4.07 3.3 14.84 14.84 0 0 1 2.53 4.69 16.91 16.91 0 0 1 .88 5.42 18.35 18.35 0 0 1-1.62 7.43 22.73 22.73 0 0 1-4.35 6.6 23.1 23.1 0 0 1-6.38 4.72 17 17 0 0 1-7.73 1.83h-9.53l-3.52 16.77h-12Zm15.47 24.77a4.58 4.58 0 0 0 2.23-.63 6.7 6.7 0 0 0 2.05-1.82 10 10 0 0 0 1.46-2.86 11.78 11.78 0 0 0 .55-3.77 5.76 5.76 0 0 0-1.1-3.88 3.32 3.32 0 0 0-2.57-1.25h-8.35l-3 14.21Z" fill="#136c97"/></svg>